<?xml version="1.0" encoding="UTF-8" standalone="no"?>
<!DOCTYPE svg PUBLIC "-//W3C//DTD SVG 1.1//EN"
 "http://www.w3.org/Graphics/SVG/1.1/DTD/svg11.dtd">
<!-- Generated by graphviz version 2.43.0 (0)
 -->
<!-- Title: %3 Pages: 1 -->
<svg width="1346pt" height="332pt"
 viewBox="0.00 0.00 1345.61 332.00" xmlns="http://www.w3.org/2000/svg" xmlns:xlink="http://www.w3.org/1999/xlink">
<g id="graph0" class="graph" transform="scale(1 1) rotate(0) translate(4 328)">
<title>%3</title>
<polygon fill="white" stroke="transparent" points="-4,4 -4,-328 1341.61,-328 1341.61,4 -4,4"/>
<!-- [root] google_compute_address.vm_static_ip (expand) -->
<g id="node1" class="node">
<title>[root] google_compute_address.vm_static_ip (expand)</title>
<polygon fill="none" stroke="black" points="377.78,-108 89.78,-108 89.78,-72 377.78,-72 377.78,-108"/>
<text text-anchor="middle" x="233.78" y="-86.3" font-family="Times,serif" font-size="14.00">google_compute_address.vm_static_ip</text>
</g>
<!-- [root] provider[&quot;registry.terraform.io/hashicorp/google&quot;] -->
<g id="node5" class="node">
<title>[root] provider[&quot;registry.terraform.io/hashicorp/google&quot;]</title>
<polygon fill="none" stroke="black" points="632.78,-36 289.25,-18 632.78,0 976.31,-18 632.78,-36"/>
<text text-anchor="middle" x="632.78" y="-14.3" font-family="Times,serif" font-size="14.00">provider[&quot;registry.terraform.io/hashicorp/google&quot;]</text>
</g>
<!-- [root] google_compute_address.vm_static_ip (expand)&#45;&gt;[root] provider[&quot;registry.terraform.io/hashicorp/google&quot;] -->
<g id="edge1" class="edge">
<title>[root] google_compute_address.vm_static_ip (expand)&#45;&gt;[root] provider[&quot;registry.terraform.io/hashicorp/google&quot;]</title>
<path fill="none" stroke="black" d="M330.88,-71.97C397.23,-60.33 484.3,-45.05 547.88,-33.9"/>
<polygon fill="black" stroke="black" points="548.63,-37.32 557.88,-32.14 547.42,-30.42 548.63,-37.32"/>
</g>
<!-- [root] google_compute_instance.another_instance (expand) -->
<g id="node2" class="node">
<title>[root] google_compute_instance.another_instance (expand)</title>
<polygon fill="none" stroke="black" points="1195.78,-180 869.78,-180 869.78,-144 1195.78,-144 1195.78,-180"/>
<text text-anchor="middle" x="1032.78" y="-158.3" font-family="Times,serif" font-size="14.00">google_compute_instance.another_instance</text>
</g>
<!-- [root] google_storage_bucket.example_bucket (expand) -->
<g id="node4" class="node">
<title>[root] google_storage_bucket.example_bucket (expand)</title>
<polygon fill="none" stroke="black" points="1182.28,-108 883.28,-108 883.28,-72 1182.28,-72 1182.28,-108"/>
<text text-anchor="middle" x="1032.78" y="-86.3" font-family="Times,serif" font-size="14.00">google_storage_bucket.example_bucket</text>
</g>
<!-- [root] google_compute_instance.another_instance (expand)&#45;&gt;[root] google_storage_bucket.example_bucket (expand) -->
<g id="edge2" class="edge">
<title>[root] google_compute_instance.another_instance (expand)&#45;&gt;[root] google_storage_bucket.example_bucket (expand)</title>
<path fill="none" stroke="black" d="M1032.78,-143.7C1032.78,-135.98 1032.78,-126.71 1032.78,-118.11"/>
<polygon fill="black" stroke="black" points="1036.28,-118.1 1032.78,-108.1 1029.28,-118.1 1036.28,-118.1"/>
</g>
<!-- [root] google_compute_instance.vm_instance (expand) -->
<g id="node3" class="node">
<title>[root] google_compute_instance.vm_instance (expand)</title>
<polygon fill="none" stroke="black" points="686.78,-180 394.78,-180 394.78,-144 686.78,-144 686.78,-180"/>
<text text-anchor="middle" x="540.78" y="-158.3" font-family="Times,serif" font-size="14.00">google_compute_instance.vm_instance</text>
</g>
<!-- [root] google_compute_instance.vm_instance (expand)&#45;&gt;[root] google_compute_address.vm_static_ip (expand) -->
<g id="edge3" class="edge">
<title>[root] google_compute_instance.vm_instance (expand)&#45;&gt;[root] google_compute_address.vm_static_ip (expand)</title>
<path fill="none" stroke="black" d="M466.08,-143.97C421.51,-133.8 364.8,-120.87 318.56,-110.33"/>
<polygon fill="black" stroke="black" points="319.09,-106.86 308.56,-108.05 317.53,-113.69 319.09,-106.86"/>
</g>
<!-- [root] var.instance_name -->
<g id="node6" class="node">
<title>[root] var.instance_name</title>
<polygon fill="none" stroke="black" points="539.28,-108 396.28,-108 396.28,-72 545.28,-72 545.28,-102 539.28,-108"/>
<polyline fill="none" stroke="black" points="539.28,-108 539.28,-102 "/>
<polyline fill="none" stroke="black" points="545.28,-102 539.28,-102 "/>
<text text-anchor="middle" x="470.78" y="-86.3" font-family="Times,serif" font-size="14.00">var.instance_name</text>
</g>
<!-- [root] google_compute_instance.vm_instance (expand)&#45;&gt;[root] var.instance_name -->
<g id="edge4" class="edge">
<title>[root] google_compute_instance.vm_instance (expand)&#45;&gt;[root] var.instance_name</title>
<path fill="none" stroke="black" d="M523.48,-143.7C514.92,-135.14 504.44,-124.66 495.09,-115.3"/>
<polygon fill="black" stroke="black" points="497.43,-112.7 487.89,-108.1 492.48,-117.65 497.43,-112.7"/>
</g>
<!-- [root] var.instance_type -->
<g id="node7" class="node">
<title>[root] var.instance_type</title>
<polygon fill="none" stroke="black" points="698.28,-108 563.28,-108 563.28,-72 704.28,-72 704.28,-102 698.28,-108"/>
<polyline fill="none" stroke="black" points="698.28,-108 698.28,-102 "/>
<polyline fill="none" stroke="black" points="704.28,-102 698.28,-102 "/>
<text text-anchor="middle" x="633.78" y="-86.3" font-family="Times,serif" font-size="14.00">var.instance_type</text>
</g>
<!-- [root] google_compute_instance.vm_instance (expand)&#45;&gt;[root] var.instance_type -->
<g id="edge5" class="edge">
<title>[root] google_compute_instance.vm_instance (expand)&#45;&gt;[root] var.instance_type</title>
<path fill="none" stroke="black" d="M563.77,-143.7C575.6,-134.8 590.18,-123.82 602.96,-114.2"/>
<polygon fill="black" stroke="black" points="605.18,-116.91 611.06,-108.1 600.97,-111.32 605.18,-116.91"/>
</g>
<!-- [root] var.instance_zone -->
<g id="node8" class="node">
<title>[root] var.instance_zone</title>
<polygon fill="none" stroke="black" points="859.28,-108 722.28,-108 722.28,-72 865.28,-72 865.28,-102 859.28,-108"/>
<polyline fill="none" stroke="black" points="859.28,-108 859.28,-102 "/>
<polyline fill="none" stroke="black" points="865.28,-102 859.28,-102 "/>
<text text-anchor="middle" x="793.78" y="-86.3" font-family="Times,serif" font-size="14.00">var.instance_zone</text>
</g>
<!-- [root] google_compute_instance.vm_instance (expand)&#45;&gt;[root] var.instance_zone -->
<g id="edge6" class="edge">
<title>[root] google_compute_instance.vm_instance (expand)&#45;&gt;[root] var.instance_zone</title>
<path fill="none" stroke="black" d="M602.35,-143.97C638.47,-133.97 684.28,-121.3 722.03,-110.85"/>
<polygon fill="black" stroke="black" points="723.24,-114.15 731.94,-108.11 721.37,-107.4 723.24,-114.15"/>
</g>
<!-- [root] google_storage_bucket.example_bucket (expand)&#45;&gt;[root] provider[&quot;registry.terraform.io/hashicorp/google&quot;] -->
<g id="edge7" class="edge">
<title>[root] google_storage_bucket.example_bucket (expand)&#45;&gt;[root] provider[&quot;registry.terraform.io/hashicorp/google&quot;]</title>
<path fill="none" stroke="black" d="M935.44,-71.97C868.82,-60.31 781.35,-45 717.59,-33.84"/>
<polygon fill="black" stroke="black" points="718.02,-30.36 707.56,-32.09 716.81,-37.26 718.02,-30.36"/>
</g>
<!-- [root] output.instance_link (expand) -->
<g id="node9" class="node">
<title>[root] output.instance_link (expand)</title>
<ellipse fill="none" stroke="black" cx="176.78" cy="-234" rx="176.57" ry="18"/>
<text text-anchor="middle" x="176.78" y="-230.3" font-family="Times,serif" font-size="14.00">[root] output.instance_link (expand)</text>
</g>
<!-- [root] output.instance_link (expand)&#45;&gt;[root] google_compute_instance.vm_instance (expand) -->
<g id="edge8" class="edge">
<title>[root] output.instance_link (expand)&#45;&gt;[root] google_compute_instance.vm_instance (expand)</title>
<path fill="none" stroke="black" d="M255.77,-217.81C310.52,-207.28 383.82,-193.19 442.37,-181.93"/>
<polygon fill="black" stroke="black" points="443.22,-185.33 452.38,-180 441.9,-178.45 443.22,-185.33"/>
</g>
<!-- [root] output.network_IP (expand) -->
<g id="node10" class="node">
<title>[root] output.network_IP (expand)</title>
<ellipse fill="none" stroke="black" cx="540.78" cy="-234" rx="168.97" ry="18"/>
<text text-anchor="middle" x="540.78" y="-230.3" font-family="Times,serif" font-size="14.00">[root] output.network_IP (expand)</text>
</g>
<!-- [root] output.network_IP (expand)&#45;&gt;[root] google_compute_instance.vm_instance (expand) -->
<g id="edge9" class="edge">
<title>[root] output.network_IP (expand)&#45;&gt;[root] google_compute_instance.vm_instance (expand)</title>
<path fill="none" stroke="black" d="M540.78,-215.7C540.78,-207.98 540.78,-198.71 540.78,-190.11"/>
<polygon fill="black" stroke="black" points="544.28,-190.1 540.78,-180.1 537.28,-190.1 544.28,-190.1"/>
</g>
<!-- [root] provider[&quot;registry.terraform.io/hashicorp/google&quot;] (close) -->
<g id="node11" class="node">
<title>[root] provider[&quot;registry.terraform.io/hashicorp/google&quot;] (close)</title>
<ellipse fill="none" stroke="black" cx="1032.78" cy="-234" rx="304.65" ry="18"/>
<text text-anchor="middle" x="1032.78" y="-230.3" font-family="Times,serif" font-size="14.00">[root] provider[&quot;registry.terraform.io/hashicorp/google&quot;] (close)</text>
</g>
<!-- [root] provider[&quot;registry.terraform.io/hashicorp/google&quot;] (close)&#45;&gt;[root] google_compute_instance.another_instance (expand) -->
<g id="edge10" class="edge">
<title>[root] provider[&quot;registry.terraform.io/hashicorp/google&quot;] (close)&#45;&gt;[root] google_compute_instance.another_instance (expand)</title>
<path fill="none" stroke="black" d="M1032.78,-215.7C1032.78,-207.98 1032.78,-198.71 1032.78,-190.11"/>
<polygon fill="black" stroke="black" points="1036.28,-190.1 1032.78,-180.1 1029.28,-190.1 1036.28,-190.1"/>
</g>
<!-- [root] provider[&quot;registry.terraform.io/hashicorp/google&quot;] (close)&#45;&gt;[root] google_compute_instance.vm_instance (expand) -->
<g id="edge11" class="edge">
<title>[root] provider[&quot;registry.terraform.io/hashicorp/google&quot;] (close)&#45;&gt;[root] google_compute_instance.vm_instance (expand)</title>
<path fill="none" stroke="black" d="M921.76,-217.2C847.15,-206.59 748.55,-192.56 670.36,-181.43"/>
<polygon fill="black" stroke="black" points="670.83,-177.97 660.44,-180.02 669.84,-184.9 670.83,-177.97"/>
</g>
<!-- [root] root -->
<g id="node12" class="node">
<title>[root] root</title>
<ellipse fill="none" stroke="black" cx="540.78" cy="-306" rx="58.49" ry="18"/>
<text text-anchor="middle" x="540.78" y="-302.3" font-family="Times,serif" font-size="14.00">[root] root</text>
</g>
<!-- [root] root&#45;&gt;[root] output.instance_link (expand) -->
<g id="edge12" class="edge">
<title>[root] root&#45;&gt;[root] output.instance_link (expand)</title>
<path fill="none" stroke="black" d="M492.45,-295.7C434.73,-284.6 337.04,-265.82 265.59,-252.08"/>
<polygon fill="black" stroke="black" points="266.17,-248.63 255.69,-250.17 264.85,-255.5 266.17,-248.63"/>
</g>
<!-- [root] root&#45;&gt;[root] output.network_IP (expand) -->
<g id="edge13" class="edge">
<title>[root] root&#45;&gt;[root] output.network_IP (expand)</title>
<path fill="none" stroke="black" d="M540.78,-287.7C540.78,-279.98 540.78,-270.71 540.78,-262.11"/>
<polygon fill="black" stroke="black" points="544.28,-262.1 540.78,-252.1 537.28,-262.1 544.28,-262.1"/>
</g>
<!-- [root] root&#45;&gt;[root] provider[&quot;registry.terraform.io/hashicorp/google&quot;] (close) -->
<g id="edge14" class="edge">
<title>[root] root&#45;&gt;[root] provider[&quot;registry.terraform.io/hashicorp/google&quot;] (close)</title>
<path fill="none" stroke="black" d="M592.97,-297.58C668.24,-286.87 809.45,-266.78 911.59,-252.24"/>
<polygon fill="black" stroke="black" points="912.26,-255.68 921.66,-250.81 911.27,-248.75 912.26,-255.68"/>
</g>
</g>
</svg>